<svg width="880" height="200" viewBox="0 0 880 200" fill="none" xmlns="http://www.w3.org/2000/svg">
<path d="M0 60C0 26.8629 26.8629 0 60 0H140C173.137 0 200 26.8629 200 60V140C200 173.137 173.137 200 140 200H60C26.8629 200 0 173.137 0 140V60Z" fill="#F5F0D8"/>
<path d="M138 194V197H62V194H138ZM194 138V62C194 31.0721 168.928 6 138 6H62C31.0721 6 6 31.0721 6 62V138C6 168.928 31.0721 194 62 194V197L61.2373 196.995C29.004 196.587 3 170.33 3 138V62C3 29.6698 29.004 3.41324 61.2373 3.00488L62 3H138C170.585 3 197 29.4152 197 62V138C197 170.585 170.585 197 138 197V194C168.928 194 194 168.928 194 138Z" fill="#DBAB8F"/>
<path d="M643.733 79.3114C647.257 79.3114 650.208 79.9125 652.585 81.1147C654.962 82.2896 656.875 83.7649 658.323 85.5408C659.798 87.2894 660.932 89.0109 661.724 90.7048H662.38V80.131H679.715V143.697C679.715 149.052 678.404 153.533 675.781 157.14C673.158 160.746 669.524 163.451 664.88 165.254C660.262 167.085 654.948 168 648.938 168C643.282 168 638.432 167.221 634.389 165.664C630.373 164.134 627.176 162.044 624.799 159.394C622.422 156.743 620.879 153.765 620.168 150.459L636.315 148.287C636.807 149.544 637.586 150.718 638.651 151.811C639.717 152.904 641.124 153.779 642.873 154.435C644.648 155.118 646.807 155.459 649.348 155.459C653.145 155.459 656.273 154.53 658.732 152.672C661.218 150.842 662.462 147.768 662.462 143.451V131.934H661.724C660.959 133.683 659.811 135.336 658.281 136.893C656.751 138.451 654.784 139.721 652.38 140.705C649.976 141.689 647.107 142.18 643.774 142.18C639.048 142.18 634.744 141.088 630.865 138.902C627.012 136.689 623.939 133.314 621.644 128.779C619.376 124.216 618.242 118.451 618.242 111.484C618.242 104.353 619.403 98.3962 621.726 93.6148C624.048 88.8334 627.135 85.2542 630.988 82.8772C634.867 80.5001 639.116 79.3114 643.733 79.3114ZM496.198 79.3114C500.351 79.3114 504.217 79.9809 507.796 81.3197C511.403 82.6312 514.545 84.6122 517.222 87.2625C519.927 89.9127 522.031 93.2459 523.533 97.2621C525.036 101.251 525.787 105.924 525.787 111.279V116.074H482.92V116.115C482.92 119.23 483.494 121.921 484.642 124.188C485.816 126.456 487.469 128.205 489.6 129.435C491.731 130.664 494.259 131.279 497.182 131.279C499.122 131.279 500.898 131.005 502.509 130.459C504.121 129.913 505.501 129.093 506.649 128C507.796 126.907 508.67 125.568 509.271 123.984L525.418 125.049C524.599 128.929 522.919 132.317 520.378 135.213C517.864 138.082 514.613 140.323 510.624 141.935C506.662 143.519 502.086 144.312 496.895 144.312C490.42 144.312 484.846 143 480.174 140.377C475.53 137.727 471.951 133.983 469.437 129.147C466.924 124.284 465.667 118.533 465.667 111.893C465.667 105.418 466.924 99.735 469.437 94.8443C471.951 89.9536 475.489 86.1423 480.052 83.4101C484.641 80.6779 490.024 79.3114 496.198 79.3114ZM721.598 79.3114C725.751 79.3114 729.617 79.9809 733.196 81.3197C736.803 82.6312 739.945 84.6122 742.622 87.2625C745.327 89.9127 747.431 93.2459 748.934 97.2621C750.436 101.251 751.188 105.924 751.188 111.279V116.074H708.32V116.115C708.32 119.23 708.894 121.921 710.041 124.188C711.216 126.456 712.869 128.205 715 129.435C717.131 130.664 719.659 131.279 722.582 131.279C724.522 131.279 726.298 131.005 727.91 130.459C729.522 129.913 730.901 129.093 732.049 128C733.196 126.907 734.071 125.568 734.672 123.984L750.818 125.049C749.999 128.929 748.319 132.317 745.778 135.213C743.264 138.082 740.013 140.323 736.024 141.935C732.063 143.519 727.486 144.312 722.295 144.312C715.82 144.312 710.247 143 705.575 140.377C700.93 137.727 697.351 133.983 694.838 129.147C692.324 124.284 691.067 118.533 691.067 111.893C691.067 105.418 692.324 99.735 694.838 94.8443C697.351 89.9536 700.889 86.1423 705.452 83.4101C710.042 80.6779 715.424 79.3114 721.598 79.3114ZM364.606 79.3114C368.103 79.3114 371.45 79.7213 374.646 80.541C377.87 81.3607 380.725 82.6313 383.212 84.3525C385.725 86.0738 387.706 88.2871 389.154 90.9919C390.602 93.6695 391.326 96.8798 391.326 100.623V143.082H374.769V134.353H374.277C373.266 136.32 371.914 138.055 370.22 139.558C368.526 141.033 366.491 142.194 364.114 143.041C361.737 143.861 358.991 144.271 355.876 144.271C351.86 144.271 348.281 143.574 345.139 142.18C341.997 140.76 339.511 138.669 337.681 135.91C335.878 133.123 334.976 129.653 334.976 125.5C334.976 122.003 335.618 119.066 336.902 116.689C338.186 114.312 339.934 112.399 342.147 110.951C344.36 109.503 346.874 108.41 349.688 107.672C352.53 106.935 355.508 106.415 358.623 106.115C362.283 105.732 365.234 105.377 367.474 105.049C369.715 104.694 371.34 104.175 372.351 103.492C373.362 102.809 373.868 101.798 373.868 100.459V100.213C373.868 97.6177 373.048 95.6092 371.409 94.1885C369.797 92.7678 367.502 92.0573 364.524 92.0573C361.382 92.0573 358.882 92.7542 357.024 94.1477C355.166 95.5138 353.937 97.2353 353.336 99.3117L337.189 98C338.008 94.1749 339.62 90.8689 342.024 88.082C344.429 85.2678 347.53 83.1096 351.328 81.6068C355.153 80.0768 359.579 79.3114 364.606 79.3114ZM289.097 58C293.96 58 298.468 58.683 302.621 60.0491C306.801 61.4152 310.503 63.4098 313.727 66.0327C316.95 68.6283 319.573 71.8115 321.595 75.582C323.644 79.3525 324.956 83.6694 325.529 88.5328H307.58C307.252 86.2104 306.582 84.1475 305.571 82.3443C304.56 80.5137 303.262 78.9565 301.678 77.6724C300.093 76.3882 298.263 75.4042 296.187 74.7211C294.138 74.0381 291.911 73.6966 289.506 73.6966C285.162 73.6966 281.378 74.7761 278.155 76.9344C274.931 79.0656 272.431 82.1804 270.655 86.2787C268.879 90.3498 267.991 95.2953 267.991 101.115C267.991 107.098 268.879 112.126 270.655 116.197C272.458 120.268 274.972 123.341 278.195 125.418C281.419 127.494 285.149 128.533 289.383 128.533C291.76 128.533 293.96 128.219 295.982 127.59C298.031 126.962 299.847 126.046 301.432 124.844C303.017 123.615 304.328 122.126 305.366 120.377C306.432 118.629 307.17 116.634 307.58 114.393L325.529 114.475C325.065 118.328 323.904 122.044 322.046 125.623C320.215 129.175 317.743 132.358 314.628 135.172C311.541 137.959 307.853 140.172 303.563 141.812C299.301 143.424 294.479 144.229 289.097 144.229C281.611 144.229 274.917 142.536 269.015 139.148C263.141 135.76 258.497 130.855 255.082 124.435C251.694 118.014 250 110.241 250 101.115C250 91.962 251.721 84.1747 255.164 77.754C258.606 71.3333 263.278 66.4425 269.179 63.0819C275.081 59.694 281.72 58 289.097 58ZM856.009 80.131H867.853V93.246H856.009V123.738C856.009 125.35 856.255 126.607 856.746 127.508C857.238 128.383 857.922 128.997 858.796 129.352C859.697 129.708 860.735 129.885 861.91 129.885C862.73 129.885 863.549 129.817 864.369 129.68C865.189 129.516 865.817 129.394 866.254 129.312L869 142.303C868.126 142.577 866.896 142.891 865.312 143.246C863.727 143.628 861.801 143.861 859.533 143.943C855.326 144.107 851.637 143.547 848.468 142.262C845.326 140.978 842.881 138.984 841.132 136.279C839.439 133.659 838.578 130.371 838.551 126.418V93.246H829.945V80.131H838.551V65.0494H856.009V80.131ZM429.131 125.172H429.787L442.82 80.131H461.303L439.295 143.082H419.624L397.617 80.131H416.058L429.131 125.172ZM613.734 143.082H594.719L588.505 123.943H558.201L551.975 143.082H532.959L561.934 59.1475H584.801L613.734 143.082ZM798.89 79.3114C803.262 79.3114 807.073 80.268 810.325 82.1805C813.576 84.0931 816.103 86.8251 817.906 90.3769C819.709 93.9015 820.611 98.1092 820.611 103V143.082H803.153V106.115C803.18 102.262 802.196 99.2569 800.202 97.0984C798.208 94.9127 795.462 93.8198 791.965 93.8198C789.615 93.8198 787.538 94.325 785.735 95.3359C783.959 96.3469 782.566 97.8226 781.555 99.7625C780.571 101.675 780.066 103.984 780.039 106.689V143.082H762.581V80.131H779.219V91.2377H779.957C781.35 87.5766 783.686 84.6804 786.965 82.5493C790.243 80.3908 794.218 79.3114 798.89 79.3114ZM373.991 113.902C373.444 114.257 372.693 114.585 371.737 114.885C370.808 115.159 369.756 115.418 368.581 115.664C367.406 115.883 366.231 116.087 365.057 116.279C363.882 116.443 362.816 116.593 361.86 116.729C359.811 117.03 358.021 117.508 356.491 118.164C354.961 118.82 353.773 119.708 352.926 120.828C352.079 121.921 351.656 123.287 351.656 124.926C351.656 127.303 352.516 129.12 354.237 130.377C355.986 131.606 358.199 132.222 360.877 132.222C363.445 132.222 365.712 131.716 367.679 130.705C369.646 129.667 371.19 128.273 372.31 126.525C373.43 124.776 373.991 122.795 373.991 120.582V113.902ZM649.307 93.2047C646.438 93.2047 644.02 93.9836 642.053 95.5409C640.085 97.071 638.597 99.2023 637.586 101.935C636.575 104.667 636.069 107.822 636.069 111.402C636.069 115.036 636.575 118.178 637.586 120.828C638.624 123.451 640.113 125.487 642.053 126.935C644.02 128.355 646.438 129.066 649.307 129.066C652.121 129.066 654.498 128.369 656.437 126.975C658.405 125.555 659.907 123.533 660.945 120.91C662.011 118.26 662.544 115.09 662.544 111.402C662.544 107.713 662.024 104.517 660.986 101.812C659.948 99.0794 658.445 96.9616 656.478 95.4588C654.511 93.9562 652.121 93.2048 649.307 93.2047ZM562.707 110.09H584.008L573.695 78.3277H573.039L562.707 110.09ZM496.485 92.3444C493.835 92.3444 491.485 92.959 489.436 94.1885C487.415 95.3906 485.83 97.0163 484.682 99.0654C483.624 100.931 483.043 102.994 482.938 105.254H509.354C509.354 102.74 508.807 100.514 507.714 98.5738C506.621 96.634 505.105 95.1176 503.165 94.0248C501.253 92.9046 499.026 92.3444 496.485 92.3444ZM721.886 92.3444C719.235 92.3444 716.886 92.959 714.836 94.1885C712.815 95.3906 711.23 97.0163 710.083 99.0654C709.024 100.931 708.443 102.994 708.338 105.254H734.754C734.754 102.74 734.207 100.514 733.114 98.5738C732.021 96.634 730.505 95.1176 728.565 94.0248C726.653 92.9046 724.426 92.3444 721.886 92.3444Z" fill="#F5F0D8"/>
<path d="M59.8683 129.733C59.2822 129.839 59.4567 129.702 59.2926 129.402C58.8576 128.606 58.1781 126.23 57.9709 125.269C57.7108 124.066 57.5989 120.23 57.3025 119.761C56.9359 119.183 55.6968 119.246 55.21 119.718C54.9329 120.01 54.697 121.108 54.6957 121.54C54.6738 127.228 58.2618 132.259 57.4255 137.55C57.1679 139.185 56.2682 141.494 55.6003 143H44.5974L44.5947 142.998C44.4048 142.809 45.6299 138.772 45.8202 138.117C48.3134 129.482 51.2457 118.089 54.5674 109.967C57.3519 103.155 63.4973 98.9174 69.3187 94.8723L59.8683 129.733Z" fill="#B26F48"/>
<path d="M41.2286 142.998H21.2931L48.3459 119.324L41.2286 142.998Z" fill="#B26F48"/>
<path d="M135.849 86.8167L137.073 88.189L157.735 142.998H144.013C142.316 138.263 142.008 135.131 143.363 130.249C143.722 128.959 145.048 126.348 145.048 125.179V120.237C145.048 119.639 142.995 119.004 142.397 120.435C141.929 121.554 142.302 123.656 142.083 125.062C141.924 126.083 141.141 128.435 140.67 129.361C140.532 129.634 140.805 129.851 140.132 129.732C136.388 117.597 133.984 104.947 129.708 92.9871C127.983 88.1617 125.491 83.2948 123.998 78.4343C123.933 78.2223 123.597 77.8349 123.948 77.7048L135.849 86.8167Z" fill="#B26F48"/>
<path d="M178.705 142.998H161.229L152.559 120.107L178.705 142.998Z" fill="#B26F48"/>
<path d="M164.21 107.1C166.936 109.227 170.055 111.103 171.682 114.286L180 139.614C179.556 139.73 179.48 139.438 179.22 139.23C174.647 135.575 170.367 131.188 165.818 127.462L164.21 107.1Z" fill="#B26F48"/>
<path d="M90.7007 46.8994C95.1887 43.6907 101.139 43.1831 106.212 45.1888L106.213 45.1906C94.8047 55.6896 83.2768 66.1091 71.7829 76.5366C68.109 79.8703 58.9518 86.6361 57.2767 90.836C54.4547 97.9091 53.0526 106.295 50.294 113.476L20 139.614L27.7633 115.81C28.9491 112.864 29.893 111.695 32.3085 109.711C37.8218 105.188 45.0776 101.203 50.2646 96.5373C51.1836 95.7115 52.1273 95.0946 51.351 93.6772L49.7076 93.3729L40.4497 99.9425C44.1222 91.2202 46.5983 81.5854 50.3511 72.9515C51.1549 71.1007 51.8207 69.4469 53.8179 68.6314L74.109 59.7567L58.2 76.6744C57.2538 77.9568 57.9771 79.7125 59.683 79.2212C60.0479 79.1159 63.189 75.826 63.7594 75.2386C72.8402 65.892 81.5305 56.155 90.7007 46.8994Z" fill="#B26F48"/>
<path d="M161.039 104.169L162.657 124.395C162.152 124.579 161.164 123.589 160.719 123.221C157.325 120.416 154.14 117.323 150.744 114.514V76.6637L161.039 104.169Z" fill="#B26F48"/>
<path d="M146.845 69.0065L147.896 70.0305V107.62L136.084 77.2169L122.262 58.0666L146.845 69.0065Z" fill="#B26F48"/>
<path d="M97.1477 73.4125C90.6234 77.6513 83.8699 81.4869 77.3949 85.8168C70.5741 90.377 63.6778 95.1613 57.5432 100.597C58.1296 98.4794 58.644 96.3016 59.347 94.2179C60.701 90.2067 61.5214 89.5158 64.5258 86.6752C68.3731 83.0386 72.7296 79.5669 76.7024 76.0174C80.0331 73.0415 83.3091 69.9769 86.5441 66.8957L97.1477 73.4125Z" fill="#B26F48"/>
<path d="M109.074 46.8511C110.486 47.7655 111.6 48.9907 112.678 50.2679C120.137 59.106 126.665 69.6081 133.704 78.8273L134.948 82.3874L121.378 72.2237C119.392 71.4239 118.894 72.5112 119.274 74.3399C119.979 77.7476 122.622 82.6237 123.815 86.1614C123.933 86.5126 124.354 86.9096 123.692 86.8068L89.3933 64.5861L97.5398 57.1724L110.003 67.0013C112.55 68.1221 113.232 65.6522 111.268 64.1708L100.015 55.4295L100.371 54.5352L109.074 46.8511Z" fill="#B26F48"/>
<path d="M81.7187 104.651C82.6665 103.698 84.2034 103.698 85.1512 104.651L96.4135 115.967C97.3613 116.919 97.3613 118.463 96.4135 119.416L85.1512 130.732C84.2034 131.684 82.6665 131.684 81.7187 130.732C80.7708 129.779 80.7708 128.235 81.7187 127.283L91.2646 117.691L81.7187 108.1C80.7708 107.147 80.7708 105.603 81.7187 104.651ZM116.736 126.568C118.077 126.568 119.163 127.66 119.163 129.007C119.163 130.354 118.077 131.446 116.736 131.446H101.105C99.7645 131.446 98.6778 130.354 98.6778 129.007C98.6778 127.66 99.7645 126.568 101.105 126.568H116.736Z" fill="#B26F48"/>
</svg>
